# xmcd CD database file
#
# Track frame offsets:
#	182
#	13690
#	25612
#	38365
#	51027
#	63844
#	75608
#	88160
#	101067
#	112503
#	121617
#	135277
#	148344
#	160542
#	171863
#	183118
#	195567
#	207470
#
# Disc length: 2950 seconds
#
# Revision: 3
# Processed by: cddbd v1.5.2PL0 Copyright (c) Steve Scherf et al.
# Submitted via: CDex 1.70beta2
#
DISCID=d60b8412
DTITLE=Various Artist - Country Boogie -  (139 -1947) -  CD1
DYEAR=2002
DGENRE=Country Classics
TTITLE0=Arthur Smith - Country Boogie (O'Clock Jump)  - (1946)
TTITLE1=Johnny Barfield - Boogie Woogie   - (1939)
TTITLE2=Moon Mullican - I'm Tired of You   - (1939)
TTITLE3=Louise Massey - Billy Boy   - (1940)
TTITLE4=Sunshine Boys - Old Joe Clark Boogie   - (1940)
TTITLE5=Sunshine Boys - Gonna Get Tight  - (1941) 
TTITLE6=Mancel Tierney - Boogie Woogie in the Village  - (1941) 
TTITLE7=Charles Mitchell - Mean Mean Mama Blues   - (1941)
TTITLE8=Bob Dunn - Takin' Off   - (1941)
TTITLE9=Cliff Bruner - Too Wet to Plow   - (1944)
TTITLE10=Porky Freeman - Boogie Woogie Boy   - (1945)
TTITLE11=Moon Mullican - Shoot the Moon  - (1946) 
TTITLE12=Buchanan Bros. - Atomic Power   - (1946)
TTITLE13=T-Texas Tyler - T/Texas Boogie   - (1946)
TTITLE14=Cecil Campbell - Nowhere, No Time, No Place   - (1946)
TTITLE15=Spade Cooley - Steel Guitar Rag   - (1946)
TTITLE16=Bob Wills - Bob Wills' Boogie   - (1946)
TTITLE17=Arthur Smith - Boomerang   - (1946)
EXTD=YEAR: 2002
EXTT0=
EXTT1=
EXTT2=
EXTT3=
EXTT4=
EXTT5=
EXTT6=
EXTT7=
EXTT8=
EXTT9=
EXTT10=
EXTT11=
EXTT12=
EXTT13=
EXTT14=
EXTT15=
EXTT16=
EXTT17=
PLAYORDER=
